# xmcd
#
# Track frame offsets:
#        150
#        32780
#        62742
#        94087
#        117595
#        147402
#        176735
#        214005
#
# Disc length: 3233 seconds
#
# Revision: 0
# Processed by: cddbd v1.5.1PL2 Copyright (c) Steve Scherf et al.
# Submitted via: ExactAudioCopy v0.95b3
#
DISCID=770c9f08
DTITLE=Various Artist - HYPER TECHNO MUSEUM 2001 (MILLENNIUM REMIX)
DYEAR=2000
DGENRE=Techno
TTITLE0=FARGETTA - The Music Is Movin'
TTITLE1=DJ H feat. STEFY - Come On Boy
TTITLE2=REXANTHONY - An.tho.ny
TTITLE3=GENER 8 - Love Power
TTITLE4=TECHNOTRONIC feat. YA KID K - Move It To The Rhythm
TTITLE5=HARSENIKO - Tekno Shok
TTITLE6=DAVID MICHAEL JOHNSON - I Say A Little Prayer
TTITLE7=DJ ZORRO - Bandido
EXTD=
EXTT0=
EXTT1=
EXTT2=
EXTT3=
EXTT4=
EXTT5=
EXTT6=
EXTT7=
PLAYORDER=
